<?xml version="1.0" standalone="no"?>
<!DOCTYPE svg PUBLIC "-//W3C//DTD SVG 20010904//EN"
 "http://www.w3.org/TR/2001/REC-SVG-20010904/DTD/svg10.dtd">
<svg version="1.0" xmlns="http://www.w3.org/2000/svg"
 width="500.000000pt" height="500.000000pt" viewBox="0 0 500.000000 500.000000"
 preserveAspectRatio="xMidYMid meet">
<metadata>
Created by potrace 1.14, written by Peter Selinger 2001-2017
</metadata>
<g transform="translate(0.000000,500.000000) scale(0.100000,-0.100000)"
fill="#000000" stroke="none">
<path d="M0 2500 l0 -2500 2500 0 2500 0 0 2500 0 2500 -2500 0 -2500 0 0
-2500z m828 668 c9 -9 12 -162 12 -625 l0 -613 -26 -12 c-18 -9 -30 -9 -42 -1
-16 9 -17 63 -20 623 -1 444 1 617 9 626 14 17 51 18 67 2z m377 -198 l210
-210 210 210 c208 207 234 227 263 198 29 -29 8 -56 -220 -285 -181 -182 -238
-233 -258 -233 -20 0 -75 50 -251 228 -124 125 -229 234 -232 243 -8 23 20 59
46 59 15 0 86 -64 232 -210z m865 191 c6 -13 10 -225 10 -620 0 -532 -2 -601
-16 -615 -18 -19 -45 -21 -62 -4 -17 17 -17 1229 0 1246 18 18 56 14 68 -7z
m852 -19 c205 -104 284 -344 181 -548 -36 -73 -124 -154 -197 -184 -35 -14
-55 -28 -52 -35 2 -7 65 -104 140 -215 75 -112 136 -209 136 -216 0 -18 -29
-44 -49 -44 -25 0 -32 9 -186 240 -76 113 -143 211 -150 219 -9 9 -36 13 -85
13 -58 0 -75 3 -91 19 -23 23 -24 42 -3 63 12 13 39 16 124 16 130 0 194 19
263 81 69 60 99 129 99 228 0 97 -23 152 -90 219 -82 83 -98 86 -421 92 -272
5 -284 6 -297 25 -12 18 -11 24 2 44 l16 22 297 -3 297 -3 66 -33z m1164 21
c66 -22 153 -110 177 -178 38 -110 13 -224 -70 -315 -29 -33 -34 -44 -23 -48
36 -12 122 -109 153 -171 30 -61 32 -73 32 -166 0 -90 -3 -106 -29 -160 -53
-107 -142 -179 -263 -210 -69 -18 -472 -22 -504 -5 -22 12 -26 64 -6 77 6 4
125 10 262 13 233 5 253 7 291 27 55 29 108 84 134 139 31 63 31 183 1 242
-58 114 -140 161 -293 171 -110 7 -127 16 -115 63 7 24 10 25 106 30 84 4 106
9 145 32 117 69 138 225 41 321 -60 61 -88 65 -424 65 l-291 0 0 -343 c0 -253
-3 -346 -12 -355 -15 -15 -51 -15 -66 0 -17 17 -17 759 0 776 9 9 102 12 358
12 298 0 353 -2 396 -17z m-675 -1175 c6 -11 8 -31 5 -44 -16 -64 -110 -46
-104 19 5 53 75 71 99 25z"/>
</g>
</svg>
